<svg id="e2244175-b161-412b-b323-789c360cb80a" data-name="Ebene 1" xmlns="http://www.w3.org/2000/svg" viewBox="0 0 254.43 235.77"><defs><style>.fdc1cfc8-7870-4a62-8240-0b99e34b2b9a{fill:#01a0c6;stroke:#333;}.b50a5ae5-4087-40f5-9bb6-5ca4fcb88c16,.fdc1cfc8-7870-4a62-8240-0b99e34b2b9a{stroke-miterlimit:10;stroke-width:2px;}.b50a5ae5-4087-40f5-9bb6-5ca4fcb88c16,.fff3b0f6-3e9a-4da0-8cae-33bedd5a1370{fill:#333;}.b50a5ae5-4087-40f5-9bb6-5ca4fcb88c16{stroke:#fff;}.a8360462-e196-499c-96bb-4511b993c194{fill:#fefefe;}.a898c6e4-1c32-4c9d-bd42-4f40740ea8b3{fill:#bebebe;}.b4d3b55c-cc6b-4a40-94c1-65ba49c9e9ab{fill:#f8f8f8;}.b05b7b3c-b4fd-4923-b747-ea904942ffd5{fill:#f3f3f3;}.b306b9fc-6167-48f5-b623-f8530f2f0848{fill:#fff;}</style></defs><title>Bildmarke</title><path class="fdc1cfc8-7870-4a62-8240-0b99e34b2b9a" d="M499.33,409.72a120.13,120.13,0,0,0,42.93-70.14l-5,1.86c-39.53,14.92-78.69,30.81-117.84,46.7Q392.75,399,366,409.72Z" transform="translate(-300.09 -174.95)"/><text x="-300.09" y="-174.95"/><path class="fdc1cfc8-7870-4a62-8240-0b99e34b2b9a" d="M511.13,205.69a120.21,120.21,0,0,0-199.34,88.13C319.65,290,497,211.1,511.13,205.69Z" transform="translate(-300.09 -174.95)"/><path class="fdc1cfc8-7870-4a62-8240-0b99e34b2b9a" d="M500,216.72c-41.35,16-182.2,80.17-197.59,87.3a2.22,2.22,0,0,0-1.28,2v0a119.69,119.69,0,0,0,11.34,51,2.22,2.22,0,0,0,2.81,1.14q11.43-4.38,22.84-8.85c42.56-16.63,84.85-33.93,127.1-51.33q34.31-14.13,68.6-28.26A2.21,2.21,0,0,0,535,267a120.27,120.27,0,0,0-32.78-49.81A2.21,2.21,0,0,0,500,216.72Z" transform="translate(-300.09 -174.95)"/><path class="fdc1cfc8-7870-4a62-8240-0b99e34b2b9a" d="M363.23,404.2c4.78-1.89,9.55-3.82,14.32-5.73,39.19-15.7,78.21-31.81,117.45-47.37q28.08-11.13,56.35-21.78a120.8,120.8,0,0,0-3.39-59L531.58,277c-42.81,17.62-85.57,35.38-128.51,52.69q-32.38,13.06-64.94,25.7-6.21,2.4-12.43,4.75A120.71,120.71,0,0,0,363.23,404.2Z" transform="translate(-300.09 -174.95)"/><polygon class="b50a5ae5-4087-40f5-9bb6-5ca4fcb88c16" points="173.62 41.05 78.3 41.05 30.64 123.59 78.3 206.15 173.62 206.15 221.28 123.59 173.62 41.05"/><path class="a8360462-e196-499c-96bb-4511b993c194" d="M378.18,322.35c-3-10-1.13-17.64,6.1-24.15C389,294,393.85,290.11,398.6,286a32.39,32.39,0,0,0,3.56-3.74c3.93-4.73,3.73-6.69-.93-10.14-1.88-1.48-3.59-3.4-5.66-4.35-8.74-4-17.5-3.22-26.17.55a47,47,0,0,1-6.64,2.54c-1,.28-2.69.09-3.29-.67s-.32-2.53,0-3.7a12.7,12.7,0,0,1,1.95-3.87c2.61-3.65,5.32-7.19,8-10.77,7.36-6.77,15.75-6.38,24.34-4.39,10.63,2.46,20.56,7.07,30,12.92a4.13,4.13,0,0,0,5,0c10.5-6.42,21.47-11.41,33.34-13.58,7.62-1.4,14.79-.63,21.06,5,1.34,1.71,2.78,3.33,4,5.14a84.24,84.24,0,0,1,6.06,9.81c1.41,2.92,0,4.78-2.87,4.14a28.59,28.59,0,0,1-6.1-2.1,33,33,0,0,0-16.94-3.62c-6.37.5-12.47,2.11-17.12,7.66-3.14,2.84-3.55,4.63-.78,7.88a123.79,123.79,0,0,0,10.45,10.42c2.74,2.53,5.81,4.61,8.57,7.12,7.44,6.8,9.21,15.29,5.46,25.45-.73,1.22-1.41,2.48-2.2,3.66-2.92,4.38-5.46,9.22-8.9,13-11.44,12.63-25.39,17.24-41.24,15.93C404,354.89,391,345.23,381.64,328.78,380.44,326.67,379.34,324.5,378.18,322.35Zm69.41,4c.9-4.31.25-6.32-3.07-8.64a19.3,19.3,0,0,0-4.39-2.33,38.73,38.73,0,0,0-27.78.09,18.2,18.2,0,0,0-5.79,3.63,5.92,5.92,0,0,0-1.53,7.24c-.17,4.16,1.73,7.27,4.28,9.82,7.89,7.93,22.58,9.13,31.34,2.37C444.35,335.7,447.58,332.1,447.59,326.37Z" transform="translate(-300.09 -174.95)"/><path class="a898c6e4-1c32-4c9d-bd42-4f40740ea8b3" d="M378.18,322.35c1.16,2.15,2.26,4.32,3.46,6.43,9.38,16.45,22.32,26.11,39.93,27.57,15.85,1.31,29.8-3.3,41.24-15.93,3.44-3.79,6-8.63,8.9-13,.79-1.18,1.47-2.44,2.2-3.66a53.28,53.28,0,0,1-2.58,6.92c-8.32,15.57-19.91,26.83-35,33.45a23.4,23.4,0,0,1-19.36.29c-16.05-6.87-28.3-18.74-36.62-35.69A52.55,52.55,0,0,1,378.18,322.35Z" transform="translate(-300.09 -174.95)"/><path class="a898c6e4-1c32-4c9d-bd42-4f40740ea8b3" d="M450.21,272.88c4.65-5.55,10.75-7.16,17.12-7.66a33,33,0,0,1,16.94,3.62,28.59,28.59,0,0,0,6.1,2.1c2.86.64,4.28-1.22,2.87-4.14a84.24,84.24,0,0,0-6.06-9.81c-1.21-1.81-2.65-3.43-4-5.14,10,6.91,17,16.52,20.82,29,.35,1.15.33,3.25-.28,3.76a3.82,3.82,0,0,1-3.59.26,78.66,78.66,0,0,1-8.38-4.91c-4.14-2.68-8.18-5.56-12.33-8.23-7.85-5-15.89-5.94-24.17-1.25C453.64,271.44,451.9,272.1,450.21,272.88Z" transform="translate(-300.09 -174.95)"/><path class="a898c6e4-1c32-4c9d-bd42-4f40740ea8b3" d="M369.43,251.86c-2.68,3.58-5.39,7.12-8,10.77a12.7,12.7,0,0,0-1.95,3.87c-.33,1.17-.57,3,0,3.7s2.25.95,3.29.67a47,47,0,0,0,6.64-2.54c8.67-3.77,17.43-4.56,26.17-.55,2.07,1,3.78,2.87,5.66,4.35-1.89-.8-3.83-1.48-5.67-2.42-6.67-3.41-13.29-3-19.68.64-5.14,3-10,6.5-15.07,9.69a69.38,69.38,0,0,1-8.65,5c-3.12,1.39-4.8-.34-3.58-3.83a76.67,76.67,0,0,1,6-13.45A45.39,45.39,0,0,1,369.43,251.86Z" transform="translate(-300.09 -174.95)"/><path class="fff3b0f6-3e9a-4da0-8cae-33bedd5a1370" d="M405,326.36a5.92,5.92,0,0,1,1.53-7.24,18.2,18.2,0,0,1,5.79-3.63,38.73,38.73,0,0,1,27.78-.09,19.3,19.3,0,0,1,4.39,2.33c3.32,2.32,4,4.33,3.07,8.64C438,341.11,414.42,341,405,326.36Zm21.34-6.15c2.08-.41,4.08-.72,6-1.24.59-.16,1.06-.91,1.58-1.38-.47-.51-.86-1.28-1.41-1.49a17.49,17.49,0,0,0-12.48,0c-.57.2-1,1-1.46,1.46.52.48,1,1.25,1.55,1.4C422.23,319.48,424.33,319.81,426.37,320.21Z" transform="translate(-300.09 -174.95)"/><path class="a898c6e4-1c32-4c9d-bd42-4f40740ea8b3" d="M405,326.36c9.39,14.59,33,14.75,42.56,0,0,5.73-3.24,9.33-6.94,12.18-8.76,6.76-23.45,5.56-31.34-2.37C406.76,333.63,404.86,330.52,405,326.36Z" transform="translate(-300.09 -174.95)"/><path class="b4d3b55c-cc6b-4a40-94c1-65ba49c9e9ab" d="M426.37,320.21c-2-.4-4.14-.73-6.19-1.26-.58-.15-1-.92-1.55-1.4.48-.5.89-1.26,1.46-1.46a17.49,17.49,0,0,1,12.48,0c.55.21.94,1,1.41,1.49-.52.47-1,1.22-1.58,1.38C430.45,319.49,428.45,319.8,426.37,320.21Z" transform="translate(-300.09 -174.95)"/><ellipse class="b05b7b3c-b4fd-4923-b747-ea904942ffd5" cx="126.22" cy="142.63" rx="7.67" ry="2.63"/><circle class="b306b9fc-6167-48f5-b623-f8530f2f0848" cx="85.83" cy="101.63" r="2.75"/><circle class="b306b9fc-6167-48f5-b623-f8530f2f0848" cx="168.87" cy="101.63" r="2.75"/></svg>