<svg id="Ebene_1" data-name="Ebene 1" xmlns="http://www.w3.org/2000/svg" viewBox="0 0 664.18 875.69"><defs><style>.cls-1{fill:#835c3f;}.cls-2,.cls-6,.cls-9{fill:#fffefa;}.cls-3,.cls-8{fill:none;stroke-linecap:round;}.cls-3{stroke:#835c3f;}.cls-13,.cls-3,.cls-6,.cls-8,.cls-9{stroke-miterlimit:10;}.cls-13,.cls-3,.cls-8{stroke-width:2px;}.cls-4{fill:#fff;}.cls-5{fill:#333;}.cls-6{stroke:#fff;}.cls-7{fill:#00711f;}.cls-8{stroke:#00711f;}.cls-13,.cls-9{stroke:#333;}.cls-10{fill:#fefefe;}.cls-11{fill:#bebebe;}.cls-12{fill:#f3f3f3;}.cls-13{fill:#01a0c6;}</style></defs><title>neuhängend1</title><path class="cls-1" d="M803.26,357.33c-.27-5.68-.56-16.5-5.75-18.86-4.73-2.15-10.9-.82-13.37,3.75s-2.81,16-2.78,21.16l.86,149.71c.13,22,2.58,45.63-10,63.72-25.9,4.55-56.38,1.05-72.17-20-12.08-16.09-2-34.52-1.63-54.64.66-41.23-5.38-82.63-4.72-123.86.22-13.68,4.13-39.47-8.94-43.53-9.38-2.92-12.13,14.55-13.18,24.33-8.95,83.16,1.33,129.75,1.79,213.4.35,62.53,3.39,285.51,30.37,286,22.13.43-5.37-135.57,35.75-138.37,36.42-2.49,19.79,143.8,40.2,140.81,20.24-3,17-135.82,20.5-152.68C804.54,687.35,807.82,453.94,803.26,357.33Z" transform="translate(-406.93 -7.71)"/><ellipse class="cls-2" cx="330.52" cy="660.23" rx="31.54" ry="43.06"/><ellipse class="cls-1" cx="739.46" cy="572.53" rx="70.3" ry="73.85" transform="translate(-303.21 1250.69) rotate(-84.92)"/><path class="cls-2" d="M800,585.75c-2.86,32.17-32.58,55.81-66.37,52.81s-58.87-31.52-56-63.69,39-63.67,64.81-35.29C775.42,516.77,802.82,553.58,800,585.75Z" transform="translate(-406.93 -7.71)"/><path class="cls-1" d="M724.88,595.33c-8,4-26.79,2.81-38.85,13.17-3.1,2.65-6-.32-5.66,3.75-.22-9.59.88-13,5.42-21.4,5.54-10.31,17.56-16.94,21.42-18.51,6.59-2.69,13.24-2.23,15.71-1.48C732.41,573.72,735.25,590.19,724.88,595.33Z" transform="translate(-406.93 -7.71)"/><path class="cls-1" d="M759.23,609.81c-.54,6-11.47,12.82-24.12,11.7s-22.23-9.74-21.69-15.77,11.23-10,23.88-8.89S759.77,603.77,759.23,609.81Z" transform="translate(-406.93 -7.71)"/><path class="cls-1" d="M749.23,597.49c7.2,5.33,25.88,7.49,35.93,19.82,2.57,3.16,4.38,1.37,3.31,5.3,1.91-9.4,3-13.51,0-22.63-3.64-11.13-14.31-19.77-17.83-22-6-3.81-12.64-4.53-15.2-4.23C745.64,574.9,739.93,590.61,749.23,597.49Z" transform="translate(-406.93 -7.71)"/><path class="cls-3" d="M715.76,621.2s15.64,14,37.82,3.37" transform="translate(-406.93 -7.71)"/><path class="cls-4" d="M751.56,588s6.63,8.81,24.4,8.64Z" transform="translate(-406.93 -7.71)"/><path class="cls-4" d="M723.92,585.55s-8.08,7.51-25.53,4.2Z" transform="translate(-406.93 -7.71)"/><polygon class="cls-1" points="327.74 499.91 325.3 478.13 333.86 491.69 342.34 460.77 344.56 492.65 362.06 473.98 346.8 501.61 327.74 499.91"/><path class="cls-5" d="M639.24,363.43c37,13.19,75.75,14.55,114,13.22,33.73-1.17,67.79-4.46,100-18A166,166,0,0,0,936,283.46c-17.52-5.86-34.92,7.86-50.93,19.16-86.21,60.88-194.2,60.85-280.39-.05-6.91-4.88-12.57-14.32-20.66-20.51-11.75-3.32-28.74,2.36-40.67.89C560.26,322.87,607.71,352.2,639.24,363.43Z" transform="translate(-406.93 -7.71)"/><path class="cls-2" d="M786.69,354.57c1.45,7.5,2.59,15.36,1.58,23,1.41-2,2-4.76,2.43-7.5a57.46,57.46,0,0,0-.32-17.9c-.41-2.28-1-4.65-2.36-6.1s-3.91-1.66-3.88,1.31C784.16,349,786.32,352.61,786.69,354.57Z" transform="translate(-406.93 -7.71)"/><path class="cls-2" d="M793,353.3c1.45,7.5,2.59,15.36,1.58,23,1.41-2,2-4.76,2.43-7.5a57.16,57.16,0,0,0-.32-17.9c-.41-2.29-1-4.66-2.35-6.1s-3.92-1.66-3.89,1.31C790.42,347.68,792.58,351.34,793,353.3Z" transform="translate(-406.93 -7.71)"/><path class="cls-2" d="M798.82,351.8c1.44,7.5,2.59,15.36,1.57,23,1.41-2,2.05-4.76,2.44-7.5a57.16,57.16,0,0,0-.33-17.9c-.4-2.29-1-4.66-2.35-6.1s-3.92-1.66-3.89,1.31C796.28,346.18,798.44,349.84,798.82,351.8Z" transform="translate(-406.93 -7.71)"/><path class="cls-2" d="M687.5,349.32c-1.44,7.5-2.59,15.36-1.57,23-1.42-2-2-4.76-2.44-7.5a57.46,57.46,0,0,1,.32-17.9c.41-2.28,1-4.65,2.36-6.1s3.92-1.66,3.88,1.31C690,343.71,687.87,347.36,687.5,349.32Z" transform="translate(-406.93 -7.71)"/><path class="cls-2" d="M681.24,348.05c-1.44,7.5-2.59,15.36-1.57,23-1.42-2-2-4.76-2.44-7.5a57.46,57.46,0,0,1,.32-17.9c.41-2.29,1-4.66,2.36-6.1s3.92-1.66,3.88,1.31C683.78,342.43,681.61,346.09,681.24,348.05Z" transform="translate(-406.93 -7.71)"/><path class="cls-2" d="M675.37,346.55c-1.44,7.5-2.59,15.36-1.57,23-1.41-2-2-4.76-2.43-7.5a56.86,56.86,0,0,1,.32-17.9c.41-2.29,1-4.66,2.35-6.1s3.92-1.66,3.89,1.31C677.91,340.93,675.75,344.59,675.37,346.55Z" transform="translate(-406.93 -7.71)"/><path class="cls-2" d="M708.81,857.12c-1.44,7.5-2.59,15.35-1.57,23-1.41-2-2-4.77-2.44-7.5a57.45,57.45,0,0,1,.32-17.9c.41-2.29,1-4.66,2.36-6.1s3.92-1.66,3.89,1.31C711.35,851.5,709.19,855.16,708.81,857.12Z" transform="translate(-406.93 -7.71)"/><path class="cls-2" d="M702.55,855.85c-1.44,7.5-2.59,15.35-1.57,23-1.41-2-2.05-4.77-2.44-7.5a57.52,57.52,0,0,1,.32-17.91c.41-2.28,1-4.65,2.36-6.1s3.92-1.65,3.89,1.32C705.09,850.23,702.93,853.89,702.55,855.85Z" transform="translate(-406.93 -7.71)"/><path class="cls-2" d="M696.69,854.35c-1.45,7.49-2.59,15.35-1.58,23-1.41-2-2.05-4.77-2.43-7.5a56.92,56.92,0,0,1,.32-17.91c.41-2.28,1-4.65,2.35-6.1s3.92-1.65,3.89,1.32C699.22,848.73,697.06,852.39,696.69,854.35Z" transform="translate(-406.93 -7.71)"/><path class="cls-6" d="M774.05,858.5c1.45,7.5,2.59,15.36,1.58,23,1.41-2,2-4.76,2.43-7.5a56.86,56.86,0,0,0-.32-17.9c-.41-2.28-1-4.65-2.35-6.1s-3.92-1.66-3.89,1.31C771.52,852.89,773.68,856.55,774.05,858.5Z" transform="translate(-406.93 -7.71)"/><path class="cls-6" d="M780.32,857.23c1.44,7.5,2.58,15.36,1.57,23,1.41-2,2.05-4.76,2.43-7.5a56.86,56.86,0,0,0-.32-17.9c-.41-2.28-1-4.65-2.35-6.1s-3.92-1.66-3.89,1.31C777.78,851.62,779.94,855.27,780.32,857.23Z" transform="translate(-406.93 -7.71)"/><path class="cls-6" d="M786.18,855.73c1.44,7.5,2.59,15.36,1.57,23,1.41-2,2-4.76,2.44-7.5a57.46,57.46,0,0,0-.32-17.9c-.41-2.29-1-4.65-2.36-6.1s-3.92-1.66-3.89,1.31C783.64,850.12,785.8,853.77,786.18,855.73Z" transform="translate(-406.93 -7.71)"/><ellipse class="cls-7" cx="631.83" cy="359.62" rx="17.58" ry="8.67" transform="translate(-441.36 642.82) rotate(-53.23)"/><line class="cls-8" x1="232.55" y1="341.83" x2="241.46" y2="328.78"/><path class="cls-5" d="M803.26,357.33c-.27-5.68-.56-16.5-5.75-18.86-4.73-2.15-10.9-.82-13.37,3.75s-2.81,16-2.78,21.16l.86,149.71c.13,22,2.58,45.63-10,63.72-25.9,4.55-56.38,1.05-72.17-20-12.08-16.09-2-34.52-1.63-54.64.66-41.23-5.38-82.63-4.72-123.86.22-13.68,4.13-39.47-8.94-43.53-9.38-2.92-12.13,14.55-13.18,24.33-8.95,83.16,1.33,129.75,1.79,213.4.35,62.53,3.39,285.51,30.37,286,22.13.43-5.37-135.57,35.75-138.37,36.42-2.49,19.79,143.8,40.2,140.81,20.24-3,17-135.82,20.5-152.68C804.54,687.35,807.82,453.94,803.26,357.33Z" transform="translate(-406.93 -7.71)"/><ellipse class="cls-2" cx="330.52" cy="660.23" rx="31.54" ry="43.06"/><ellipse class="cls-5" cx="739.46" cy="572.53" rx="70.3" ry="73.85" transform="translate(-303.21 1250.69) rotate(-84.92)"/><path class="cls-5" d="M800,585.75c-2.86,32.17-32.58,55.81-66.37,52.81s-58.87-31.52-56-63.69,39-63.67,64.81-35.29C775.42,516.77,802.82,553.58,800,585.75Z" transform="translate(-406.93 -7.71)"/><polygon class="cls-5" points="327.74 499.91 325.3 478.13 333.86 491.69 342.34 460.77 344.56 492.65 362.06 473.98 346.8 501.61 327.74 499.91"/><path class="cls-2" d="M786.69,354.57c1.45,7.5,2.59,15.36,1.58,23,1.41-2,2-4.76,2.43-7.5a57.46,57.46,0,0,0-.32-17.9c-.41-2.28-1-4.65-2.36-6.1s-3.91-1.66-3.88,1.31C784.16,349,786.32,352.61,786.69,354.57Z" transform="translate(-406.93 -7.71)"/><path class="cls-2" d="M793,353.3c1.45,7.5,2.59,15.36,1.58,23,1.41-2,2-4.76,2.43-7.5a57.16,57.16,0,0,0-.32-17.9c-.41-2.29-1-4.66-2.35-6.1s-3.92-1.66-3.89,1.31C790.42,347.68,792.58,351.34,793,353.3Z" transform="translate(-406.93 -7.71)"/><path class="cls-2" d="M798.82,351.8c1.44,7.5,2.59,15.36,1.57,23,1.41-2,2.05-4.76,2.44-7.5a57.16,57.16,0,0,0-.33-17.9c-.4-2.29-1-4.66-2.35-6.1s-3.92-1.66-3.89,1.31C796.28,346.18,798.44,349.84,798.82,351.8Z" transform="translate(-406.93 -7.71)"/><path class="cls-2" d="M687.5,349.32c-1.44,7.5-2.59,15.36-1.57,23-1.42-2-2-4.76-2.44-7.5a57.46,57.46,0,0,1,.32-17.9c.41-2.28,1-4.65,2.36-6.1s3.92-1.66,3.88,1.31C690,343.71,687.87,347.36,687.5,349.32Z" transform="translate(-406.93 -7.71)"/><path class="cls-2" d="M681.24,348.05c-1.44,7.5-2.59,15.36-1.57,23-1.42-2-2-4.76-2.44-7.5a57.46,57.46,0,0,1,.32-17.9c.41-2.29,1-4.66,2.36-6.1s3.92-1.66,3.88,1.31C683.78,342.43,681.61,346.09,681.24,348.05Z" transform="translate(-406.93 -7.71)"/><path class="cls-2" d="M675.37,346.55c-1.44,7.5-2.59,15.36-1.57,23-1.41-2-2-4.76-2.43-7.5a56.86,56.86,0,0,1,.32-17.9c.41-2.29,1-4.66,2.35-6.1s3.92-1.66,3.89,1.31C677.91,340.93,675.75,344.59,675.37,346.55Z" transform="translate(-406.93 -7.71)"/><path class="cls-9" d="M708.81,857.12c-1.44,7.5-2.59,15.35-1.57,23-1.41-2-2-4.77-2.44-7.5a57.45,57.45,0,0,1,.32-17.9c.41-2.29,1-4.66,2.36-6.1s3.92-1.66,3.89,1.31C711.35,851.5,709.19,855.16,708.81,857.12Z" transform="translate(-406.93 -7.71)"/><path class="cls-9" d="M702.55,855.85c-1.44,7.5-2.59,15.35-1.57,23-1.41-2-2.05-4.77-2.44-7.5a57.52,57.52,0,0,1,.32-17.91c.41-2.28,1-4.65,2.36-6.1s3.92-1.65,3.89,1.32C705.09,850.23,702.93,853.89,702.55,855.85Z" transform="translate(-406.93 -7.71)"/><path class="cls-9" d="M696.69,854.35c-1.45,7.49-2.59,15.35-1.58,23-1.41-2-2.05-4.77-2.43-7.5a56.92,56.92,0,0,1,.32-17.91c.41-2.28,1-4.65,2.35-6.1s3.92-1.65,3.89,1.32C699.22,848.73,697.06,852.39,696.69,854.35Z" transform="translate(-406.93 -7.71)"/><path class="cls-9" d="M774.05,858.5c1.45,7.5,2.59,15.36,1.58,23,1.41-2,2-4.76,2.43-7.5a56.86,56.86,0,0,0-.32-17.9c-.41-2.28-1-4.65-2.35-6.1s-3.92-1.66-3.89,1.31C771.52,852.89,773.68,856.55,774.05,858.5Z" transform="translate(-406.93 -7.71)"/><path class="cls-9" d="M780.32,857.23c1.44,7.5,2.58,15.36,1.57,23,1.41-2,2.05-4.76,2.43-7.5a56.86,56.86,0,0,0-.32-17.9c-.41-2.28-1-4.65-2.35-6.1s-3.92-1.66-3.89,1.31C777.78,851.62,779.94,855.27,780.32,857.23Z" transform="translate(-406.93 -7.71)"/><path class="cls-9" d="M786.18,855.73c1.44,7.5,2.59,15.36,1.57,23,1.41-2,2-4.76,2.44-7.5a57.46,57.46,0,0,0-.32-17.9c-.41-2.29-1-4.65-2.36-6.1s-3.92-1.66-3.89,1.31C783.64,850.12,785.8,853.77,786.18,855.73Z" transform="translate(-406.93 -7.71)"/><ellipse class="cls-7" cx="631.83" cy="359.62" rx="17.58" ry="8.67" transform="translate(-441.36 642.82) rotate(-53.23)"/><line class="cls-8" x1="232.55" y1="341.83" x2="241.46" y2="328.78"/><path class="cls-10" d="M707.59,598.93c-2-6.66-.76-11.8,4.07-16.16,3.13-2.81,6.41-5.4,9.58-8.15a20.9,20.9,0,0,0,2.38-2.5c2.63-3.16,2.5-4.47-.62-6.78a21.33,21.33,0,0,0-3.78-2.91c-5.85-2.68-11.71-2.16-17.51.37a30.73,30.73,0,0,1-4.44,1.7,2.42,2.42,0,0,1-2.2-.45c-.37-.46-.21-1.69,0-2.48a8.64,8.64,0,0,1,1.3-2.59c1.74-2.43,3.56-4.8,5.35-7.19,4.93-4.53,10.54-4.27,16.28-2.94a67.58,67.58,0,0,1,20.1,8.64,2.75,2.75,0,0,0,3.32,0c7-4.3,14.36-7.64,22.3-9.09,5.1-.93,9.89-.42,14.09,3.37.89,1.14,1.85,2.22,2.66,3.44a55.12,55.12,0,0,1,4.06,6.56c.94,2,0,3.19-1.92,2.77a19.91,19.91,0,0,1-4.08-1.41,22,22,0,0,0-11.33-2.42c-4.26.33-8.34,1.41-11.45,5.12-2.1,1.9-2.38,3.1-.52,5.27a82.09,82.09,0,0,0,7,7c1.83,1.69,3.88,3.08,5.73,4.76,5,4.55,6.16,10.23,3.65,17-.49.81-1,1.66-1.47,2.44-2,2.93-3.66,6.17-6,8.71-7.64,8.44-17,11.52-27.58,10.64-11.77-1-20.43-7.43-26.7-18.43C709.1,601.82,708.36,600.36,707.59,598.93ZM754,601.62c.6-2.89.16-4.23-2.06-5.79a13.07,13.07,0,0,0-2.93-1.55,25.93,25.93,0,0,0-18.58.06,12,12,0,0,0-3.87,2.43,3.94,3.94,0,0,0-1,4.84,8.55,8.55,0,0,0,2.85,6.57c5.28,5.3,15.1,6.11,21,1.58C751.84,607.85,754,605.45,754,601.62Z" transform="translate(-406.93 -7.71)"/><path class="cls-11" d="M707.59,598.93c.77,1.43,1.51,2.89,2.31,4.3,6.27,11,14.93,17.46,26.7,18.43,10.6.88,19.94-2.2,27.58-10.64,2.3-2.54,4-5.78,6-8.71.52-.78,1-1.63,1.47-2.44a35.41,35.41,0,0,1-1.73,4.62c-5.56,10.41-13.31,18-23.38,22.37a15.65,15.65,0,0,1-13,.2q-16.09-6.9-24.49-23.87A35.05,35.05,0,0,1,707.59,598.93Z" transform="translate(-406.93 -7.71)"/><path class="cls-11" d="M755.76,565.84c3.11-3.71,7.19-4.79,11.45-5.12a22,22,0,0,1,11.33,2.42,19.91,19.91,0,0,0,4.08,1.41c1.91.42,2.86-.82,1.92-2.77a55.12,55.12,0,0,0-4.06-6.56c-.81-1.22-1.77-2.3-2.66-3.44a35.46,35.46,0,0,1,13.92,19.42c.24.76.22,2.17-.18,2.51a2.56,2.56,0,0,1-2.41.18,54.54,54.54,0,0,1-5.6-3.28c-2.77-1.8-5.47-3.73-8.25-5.51-5.24-3.38-10.62-4-16.16-.83C758.05,564.88,756.89,565.32,755.76,565.84Z" transform="translate(-406.93 -7.71)"/><path class="cls-11" d="M701.73,551.79c-1.79,2.39-3.61,4.76-5.35,7.19a8.64,8.64,0,0,0-1.3,2.59c-.22.79-.38,2,0,2.48a2.42,2.42,0,0,0,2.2.45,30.73,30.73,0,0,0,4.44-1.7c5.8-2.53,11.66-3,17.51-.37a21.33,21.33,0,0,1,3.78,2.91c-1.26-.54-2.56-1-3.79-1.62a13.07,13.07,0,0,0-13.16.43c-3.44,2-6.71,4.35-10.08,6.48a46.63,46.63,0,0,1-5.79,3.34c-2.08.93-3.21-.23-2.4-2.56a52.37,52.37,0,0,1,4-9A30.36,30.36,0,0,1,701.73,551.79Z" transform="translate(-406.93 -7.71)"/><path class="cls-5" d="M725.55,601.61a3.94,3.94,0,0,1,1-4.84,12,12,0,0,1,3.87-2.43,25.93,25.93,0,0,1,18.58-.06,13.07,13.07,0,0,1,2.93,1.55c2.22,1.56,2.66,2.9,2.06,5.79C747.62,611.47,731.83,611.37,725.55,601.61Zm14.26-4.12c1.4-.27,2.73-.48,4-.82.39-.11.7-.61,1-.93-.31-.34-.57-.85-.94-1a11.67,11.67,0,0,0-8.35,0c-.37.14-.65.64-1,1,.34.32.65.83,1,.93C737.05,597,738.45,597.23,739.81,597.49Z" transform="translate(-406.93 -7.71)"/><path class="cls-11" d="M725.55,601.61c6.28,9.76,22.07,9.86,28.46,0,0,3.83-2.17,6.23-4.65,8.14-5.86,4.53-15.68,3.72-21-1.58A8.55,8.55,0,0,1,725.55,601.61Z" transform="translate(-406.93 -7.71)"/><ellipse class="cls-12" cx="332.84" cy="588.02" rx="5.13" ry="1.76"/><circle class="cls-4" cx="305.41" cy="560.29" r="2"/><circle class="cls-4" cx="361.41" cy="561.29" r="2"/><path class="cls-13" d="M408.23,256.16q16-85.76,27-157.84-6.84,2.67-13.68,5.5,2.82-24.22,8-56.92Q490.71,24.6,568.74,9a567.14,567.14,0,0,0-10.4,56.47,539.59,539.59,0,0,0-77.73,17.24l-4.46,32.11q27.19-9.22,51.12-15.16-5.79,25-9.51,41.17-19.32,3-47.11,11.14-3.57,22.59-6.69,41.47,37.31-11.44,78.62-20.07-6.69,29.15-10,51.58Q474.23,233.56,408.23,256.16Z" transform="translate(-406.93 -7.71)"/><path class="cls-13" d="M632.19,120.47Q595,126,554.59,141.26q2.53-19.29,6.46-44.81Q613.37,82,683.93,73.7q-3.58,19.86-6.12,40.07-39,50-68.37,81.18,35.12-9.22,65-14.2Q670,203,667.65,219.67q-56,8.09-128.31,24.83A186.06,186.06,0,0,1,545,210.89,912.23,912.23,0,0,0,632.19,120.47Z" transform="translate(-406.93 -7.71)"/><path class="cls-5" d="M664.64,266.78q18.48-98.85,29.8-180.38a122.93,122.93,0,0,1,35.1-14.2q-12,89.73-21,143.66,26-9.59,42.38-13.51a309.55,309.55,0,0,0-8.09,43.88Q716,249.11,664.64,266.78Z" transform="translate(-406.93 -7.71)"/><path class="cls-5" d="M748.48,258q14.89-71.59,23.1-130.61a164.83,164.83,0,0,1,36.95-10.28q-11.21,85.8-20.09,132.11Q764.31,252.92,748.48,258ZM769.27,98.18q-.12-8.9,7.51-16.51a33.33,33.33,0,0,1,18.36-9.47q10.74-1.85,18.3,2.25T821,87.56q0,8.89-7.63,17.38A31.27,31.27,0,0,1,795,115.27q-10.86,1.85-18.36-3.12A15.53,15.53,0,0,1,769.27,98.18Z" transform="translate(-406.93 -7.71)"/><path class="cls-5" d="M825.74,142q-4.5,1.85-8.89,3.69,2.19-18.81,6.23-44.23a673.48,673.48,0,0,1,102-27.94A444.36,444.36,0,0,0,917,117.35a371.2,371.2,0,0,0-56.12,12.36l-4.05,28.87q22.63-7.86,39.73-12.13l-8,34.18q-13,1.86-36.26,8.78-6.46,43-11.66,69.64-23.22,11.08-38,17.2Q816.62,203.74,825.74,142Z" transform="translate(-406.93 -7.71)"/><path class="cls-5" d="M910.59,256.16q16.06-85.76,27-157.84-6.82,2.67-13.67,5.5,2.82-24.22,8-56.92Q993.08,24.6,1071.11,9a570.14,570.14,0,0,0-10.41,56.47A539.89,539.89,0,0,0,983,82.71l-4.46,32.11q27.21-9.22,51.13-15.16-5.79,25-9.51,41.17-19.32,3-47.11,11.14-3.57,22.59-6.69,41.47,37.3-11.44,78.62-20.07-6.69,29.15-10,51.58Q976.58,233.56,910.59,256.16Z" transform="translate(-406.93 -7.71)"/></svg>